<?xml version="1.0" encoding="UTF-8"?>
<svg xmlns="http://www.w3.org/2000/svg" viewBox="0 0 920 320" width="100%" style="max-height:350px"><style>text{font-family:"BIZ UDPGothic","Hiragino Kaku Gothic ProN","Yu Gothic Medium","Noto Sans JP","Meiryo",sans-serif;}.card{filter:drop-shadow(0 2px 3px rgba(0,0,0,.12));}</style>
  <!-- A-Z 目盛り（換字の対応） -->
  <g font-family="Menlo,monospace" font-size="16" text-anchor="middle">
    <text x="460" y="30" font-family="var(--font-jp)" font-size="16" fill="#555">アルファベットを3つずらす（鍵＝3）：A→D, B→E, …</text>
    <g fill="#3C8A57" font-weight="700"><text x="60" y="62">A</text><text x="93" y="62">B</text><text x="126" y="62">C</text><text x="159" y="62">D</text><text x="192" y="62">E</text><text x="225" y="62">F</text><text x="258" y="62">G</text><text x="291" y="62">…</text></g>
    <g stroke="#A6192E" stroke-width="2"><line x1="60" y1="70" x2="159" y2="86" marker-end="url(#cz)"/><line x1="93" y1="70" x2="192" y2="86" marker-end="url(#cz)"/><line x1="126" y1="70" x2="225" y2="86" marker-end="url(#cz)"/></g>
    <g fill="#A6192E" font-weight="700"><text x="60" y="104">D</text><text x="93" y="104">E</text><text x="126" y="104">F</text><text x="159" y="104">G</text><text x="192" y="104">H</text><text x="225" y="104">I</text><text x="258" y="104">J</text><text x="291" y="104">…</text></g>
  </g>
  <!-- 平文→暗号文（手計算の見せ場） -->
  <g font-family="Menlo,monospace" font-size="30" font-weight="700" text-anchor="middle">
    <text x="460" y="175" fill="#3C8A57">H E L L O</text>
  </g>
  <g stroke="#A6192E" stroke-width="2">
    <line x1="350" y1="190" x2="350" y2="218" marker-end="url(#cz)"/><line x1="405" y1="190" x2="405" y2="218" marker-end="url(#cz)"/><line x1="460" y1="190" x2="460" y2="218" marker-end="url(#cz)"/><line x1="515" y1="190" x2="515" y2="218" marker-end="url(#cz)"/><line x1="570" y1="190" x2="570" y2="218" marker-end="url(#cz)"/>
  </g>
  <text x="460" y="210" font-size="15" fill="#A6192E" text-anchor="middle" font-family="var(--font-jp)">＋3</text>
  <g font-family="Menlo,monospace" font-size="30" font-weight="700" text-anchor="middle">
    <text x="460" y="252" fill="#A6192E">K H O O R</text>
  </g>
  <defs><marker id="cz" markerWidth="9" markerHeight="9" refX="4" refY="7" orient="auto"><path d="M0,0 L4,7 L8,0 Z" fill="#A6192E"/></marker></defs>
  <!-- 2方式の対比 -->
  <g font-size="15">
    <rect class="card" x="60" y="280" width="380" height="34" rx="6" fill="#eef7ef" stroke="#3C8A57" stroke-width="1.5"/><text x="78" y="302" fill="#3C8A57" font-weight="700">換字式</text><text x="150" y="302" fill="#555">：文字を別の文字に置き換える（シーザー）</text>
    <rect class="card" x="480" y="280" width="380" height="34" rx="6" fill="#fdf3e8" stroke="#D98A2B" stroke-width="1.5"/><text x="498" y="302" fill="#D98A2B" font-weight="700">転置式</text><text x="570" y="302" fill="#555">：文字の並び順を入れ替える</text>
  </g>
</svg>
